<svg xmlns="http://www.w3.org/2000/svg" width="39.1" height="39.1" viewBox="0 0 39.1 39.1">
  <g id="icon-password" transform="translate(143.55 93)">
    <path id="Path_4" data-name="Path 4" d="M19.55,0A19.55,19.55,0,1,1,0,19.55,19.55,19.55,0,0,1,19.55,0Z" transform="translate(-143.55 -93)" fill="#f27251"/>
    <path id="Path_3" data-name="Path 3" d="M139.968,21.241h-1.92V16.776a6.778,6.778,0,0,0-13.555,0v4.462h-1.918a1.674,1.674,0,0,0-1.674,1.674v12.22a1.675,1.675,0,0,0,1.674,1.677h17.394a1.673,1.673,0,0,0,1.672-1.677V22.915a1.672,1.672,0,0,0-1.672-1.674Zm-7.756,8.1v2.667a.22.22,0,0,1-.219.219h-1.439a.222.222,0,0,1-.222-.219V29.344a2.083,2.083,0,1,1,1.879,0Zm3.236-8.1H127.1V16.889a4.176,4.176,0,1,1,8.352,0v4.353Z" transform="translate(-255.27 -97.855)" fill="#1a1d24"/>
  </g>
</svg>
