<svg xmlns="http://www.w3.org/2000/svg" width="60" height="60" viewBox="0 0 60 60">
  <g id="TWIITER" transform="translate(-2132 -592)">
    <g id="tw">
      <circle id="Ellipse_1" data-name="Ellipse 1" cx="30" cy="30" r="30" transform="translate(2132 592)" fill="#f27251"/>
      <path id="twitter" d="M22.243,5.157a18.519,18.519,0,1,0,18.518,18.52A18.521,18.521,0,0,0,22.243,5.157Zm9.329,14.786c.01.2.014.4.014.6A13.274,13.274,0,0,1,11.152,31.729a9.545,9.545,0,0,0,1.113.065,9.363,9.363,0,0,0,5.8-2A4.674,4.674,0,0,1,13.7,26.554a4.558,4.558,0,0,0,.878.083,4.638,4.638,0,0,0,1.23-.163A4.671,4.671,0,0,1,12.065,21.9c0-.02,0-.04,0-.06a4.651,4.651,0,0,0,2.114.584,4.673,4.673,0,0,1-1.445-6.232,13.25,13.25,0,0,0,9.62,4.876,4.67,4.67,0,0,1,7.952-4.257,9.322,9.322,0,0,0,2.964-1.133,4.68,4.68,0,0,1-2.053,2.582,9.331,9.331,0,0,0,2.681-.735A9.429,9.429,0,0,1,31.571,19.943Z" transform="translate(2139.758 598.324)"/>
    </g>
  </g>
</svg>
